<?xml version="1.0" encoding="UTF-8"?>
<svg id="Capa_2" data-name="Capa 2" xmlns="http://www.w3.org/2000/svg" xmlns:xlink="http://www.w3.org/1999/xlink"
     viewBox="0 0 2795.47 2791.19">
    <defs>
        <style>
            .cls-1 {
            fill: url(#linear-gradient-82);
            }

            .cls-1, .cls-2, .cls-3, .cls-4, .cls-5, .cls-6, .cls-7, .cls-8, .cls-9, .cls-10, .cls-11, .cls-12, .cls-13,
            .cls-14, .cls-15, .cls-16, .cls-17, .cls-18, .cls-19 {
            fill-rule: evenodd;
            }

            .cls-2 {
            fill: url(#linear-gradient-81);
            }

            .cls-20 {
            opacity: .94;
            }

            .cls-21 {
            fill: url(#linear-gradient-2);
            }

            .cls-22 {
            fill: url(#linear-gradient-51);
            }

            .cls-23 {
            opacity: .45;
            }

            .cls-23, .cls-24, .cls-25, .cls-26, .cls-27, .cls-28 {
            fill: #fff;
            }

            .cls-29 {
            fill: url(#linear-gradient-17);
            }

            .cls-30 {
            fill: url(#linear-gradient-43);
            }

            .cls-31 {
            fill: url(#_2-3);
            }

            .cls-3 {
            fill: url(#linear-gradient-72);
            }

            .cls-4 {
            fill: url(#linear-gradient-70);
            }

            .cls-32 {
            fill: url(#linear-gradient-15);
            }

            .cls-33 {
            fill: url(#linear-gradient-58);
            }

            .cls-5 {
            fill: url(#linear-gradient-79);
            }

            .cls-34 {
            fill: url(#linear-gradient-18);
            }

            .cls-35 {
            fill: url(#linear-gradient-56);
            }

            .cls-6 {
            fill: url(#linear-gradient-74);
            }

            .cls-36 {
            fill: url(#linear-gradient-40);
            }

            .cls-37 {
            fill: url(#linear-gradient-52);
            }

            .cls-38 {
            fill: url(#linear-gradient-28);
            }

            .cls-39 {
            fill: url(#linear-gradient-14);
            }

            .cls-40 {
            fill: url(#linear-gradient-36);
            }

            .cls-41 {
            fill: url(#linear-gradient-20);
            }

            .cls-42 {
            fill: url(#linear-gradient-6);
            }

            .cls-43 {
            fill: url(#linear-gradient-53);
            }

            .cls-7 {
            fill: url(#linear-gradient-78);
            }

            .cls-44 {
            fill: url(#linear-gradient-60);
            }

            .cls-8 {
            fill: url(#linear-gradient-76);
            }

            .cls-25 {
            opacity: .86;
            }

            .cls-45 {
            fill: url(#linear-gradient-35);
            }

            .cls-46 {
            fill: url(#linear-gradient-48);
            }

            .cls-47 {
            fill: url(#linear-gradient-32);
            }

            .cls-48 {
            fill: url(#linear-gradient-11);
            }

            .cls-49 {
            fill: url(#linear-gradient-50);
            }

            .cls-26 {
            opacity: .42;
            }

            .cls-50 {
            fill: url(#linear-gradient-63);
            }

            .cls-51 {
            fill: url(#linear-gradient-39);
            }

            .cls-52 {
            fill: url(#linear-gradient-10);
            }

            .cls-53 {
            fill: url(#linear-gradient-59);
            }

            .cls-54 {
            fill: url(#linear-gradient-49);
            }

            .cls-55 {
            fill: url(#linear-gradient-37);
            }

            .cls-56 {
            fill: url(#linear-gradient-16);
            }

            .cls-9 {
            fill: url(#linear-gradient-65);
            }

            .cls-10 {
            fill: url(#linear-gradient-71);
            }

            .cls-57 {
            fill: url(#linear-gradient-31);
            }

            .cls-58 {
            fill: url(#_2-2);
            }

            .cls-59 {
            fill: url(#linear-gradient-61);
            }

            .cls-60 {
            fill: url(#linear-gradient-62);
            }

            .cls-61 {
            fill: url(#linear-gradient-41);
            }

            .cls-62 {
            fill: url(#linear-gradient-21);
            }

            .cls-63 {
            fill: url(#linear-gradient-25);
            }

            .cls-64 {
            fill: url(#linear-gradient-5);
            }

            .cls-65 {
            fill: url(#linear-gradient-54);
            }

            .cls-66 {
            fill: url(#linear-gradient-45);
            }

            .cls-67 {
            fill: url(#linear-gradient-55);
            }

            .cls-11 {
            fill: url(#linear-gradient-75);
            }

            .cls-68 {
            fill: url(#linear-gradient-34);
            }

            .cls-69 {
            fill: url(#linear-gradient-7);
            }

            .cls-12 {
            fill: url(#linear-gradient-68);
            }

            .cls-13 {
            fill: url(#linear-gradient-67);
            }

            .cls-14 {
            fill: url(#linear-gradient-64);
            }

            .cls-70 {
            fill: url(#linear-gradient-24);
            }

            .cls-71 {
            fill: url(#linear-gradient-9);
            }

            .cls-15 {
            fill: url(#linear-gradient-66);
            }

            .cls-72 {
            fill: url(#linear-gradient-22);
            }

            .cls-73 {
            fill: url(#linear-gradient-42);
            }

            .cls-74 {
            fill: url(#linear-gradient-3);
            }

            .cls-27 {
            opacity: .58;
            }

            .cls-16 {
            fill: url(#linear-gradient-69);
            }

            .cls-28 {
            opacity: .78;
            }

            .cls-75 {
            fill: url(#linear-gradient-27);
            }

            .cls-17 {
            fill: url(#linear-gradient-77);
            }

            .cls-76 {
            fill: url(#linear-gradient-33);
            }

            .cls-18 {
            fill: url(#linear-gradient-73);
            }

            .cls-77 {
            fill: url(#linear-gradient-38);
            }

            .cls-78 {
            fill: url(#linear-gradient-29);
            }

            .cls-79 {
            fill: url(#linear-gradient-30);
            }

            .cls-80 {
            fill: url(#linear-gradient-23);
            }

            .cls-81 {
            fill: url(#linear-gradient-19);
            }

            .cls-19 {
            fill: url(#linear-gradient-80);
            }

            .cls-82 {
            fill: url(#linear-gradient-4);
            }

            .cls-83 {
            fill: url(#linear-gradient-8);
            }

            .cls-84 {
            fill: url(#linear-gradient-44);
            }

            .cls-85 {
            fill: url(#linear-gradient-57);
            }

            .cls-86 {
            fill: url(#linear-gradient);
            opacity: .3;
            }

            .cls-87 {
            fill: url(#linear-gradient-47);
            }

            .cls-88 {
            fill: url(#linear-gradient-46);
            }

            .cls-89 {
            fill: url(#_2);
            }

            .cls-90 {
            fill: url(#linear-gradient-12);
            }

            .cls-91 {
            fill: url(#linear-gradient-13);
            }

            .cls-92 {
            fill: url(#linear-gradient-26);
            }
        </style>
        <linearGradient id="linear-gradient" x1="3151.06" y1="3599.84" x2="681.18" y2="532.41"
                        gradientUnits="userSpaceOnUse">
            <stop offset="0" stop-color="#b37cff"/>
            <stop offset="1" stop-color="#f895e7"/>
        </linearGradient>
        <linearGradient id="linear-gradient-2" x1="2058.74" y1="1232.7" x2="2176.68" y2="-263.15"
                        xlink:href="#linear-gradient"/>
        <linearGradient id="linear-gradient-3" x1="1854.81" y1="1576.12" x2="1973.42" y2="564.01"
                        gradientTransform="translate(608.89 -38.17) rotate(7.26)" gradientUnits="userSpaceOnUse">
            <stop offset="0" stop-color="#a737d5"/>
            <stop offset="1" stop-color="#ef497a"/>
        </linearGradient>
        <linearGradient id="linear-gradient-4" x1="3030.59" y1="-3407.22" x2="3602.51" y2="-3407.22"
                        gradientTransform="translate(3469.7 7993.38) rotate(-77.07) scale(1.8 1.34)"
                        xlink:href="#linear-gradient"/>
        <linearGradient id="linear-gradient-5" x1="3232.2" y1="-1812.35" x2="4306.93" y2="-1812.35"
                        gradientTransform="translate(359.66 4972.7) rotate(-59.43)" xlink:href="#linear-gradient-3"/>
        <linearGradient id="linear-gradient-6" x1="2631.4" y1="-1866.21" x2="1037.24" y2="1796.06"
                        gradientUnits="userSpaceOnUse">
            <stop offset="0" stop-color="#53d8ff"/>
            <stop offset="1" stop-color="#3840f7"/>
        </linearGradient>
        <linearGradient id="linear-gradient-7" x1="1714.7" y1="176.55" x2="328.79" y2="3609.02"
                        xlink:href="#linear-gradient-6"/>
        <linearGradient id="linear-gradient-8" x1="1494.33" y1="1126.89" x2="1685.94" y2="904.49"
                        gradientTransform="translate(854.59 -695.65) rotate(49.02)" gradientUnits="userSpaceOnUse">
            <stop offset="0" stop-color="#fdf53f"/>
            <stop offset="1" stop-color="#d93c65"/>
        </linearGradient>
        <linearGradient id="linear-gradient-9" x1="1794.22" y1="742.27" x2="1227.62" y2="1598.24"
                        gradientTransform="translate(854.59 -695.65) rotate(49.02)" xlink:href="#linear-gradient-8"/>
        <linearGradient id="linear-gradient-10" x1="1777.31" y1="766.8" x2="1475.61" y2="1273.31"
                        gradientTransform="translate(-339.19 153.99) rotate(4.02)" xlink:href="#linear-gradient-8"/>
        <linearGradient id="linear-gradient-11" x1="1746.75" y1="953.16" x2="2059.46" y2="590.2"
                        gradientTransform="translate(765.89 -1061.49) rotate(49.02)" xlink:href="#linear-gradient-8"/>
        <linearGradient id="linear-gradient-12" x1="2236.16" y1="325.46" x2="1311.47" y2="1722.4"
                        gradientTransform="translate(765.89 -1061.49) rotate(49.02)" xlink:href="#linear-gradient-8"/>
        <linearGradient id="linear-gradient-13" x1="2208.58" y1="365.48" x2="1716.19" y2="1192.12"
                        gradientTransform="translate(-339.19 153.99) rotate(4.02)" xlink:href="#linear-gradient-8"/>
        <linearGradient id="linear-gradient-14" x1="1898.27" y1="1484.62" x2="2220.05" y2="1111.13"
                        gradientTransform="translate(1177.43 -993.64) rotate(49.02)" xlink:href="#linear-gradient-8"/>
        <linearGradient id="linear-gradient-15" x1="2401.87" y1="838.73" x2="1450.38" y2="2276.16"
                        gradientTransform="translate(1177.43 -993.64) rotate(49.02)" xlink:href="#linear-gradient-8"/>
        <linearGradient id="linear-gradient-16" x1="2373.49" y1="879.91" x2="1866.83" y2="1730.51"
                        gradientTransform="translate(-339.19 153.99) rotate(4.02)" xlink:href="#linear-gradient-8"/>
        <linearGradient id="linear-gradient-17" x1="2263.6" y1="1008.83" x2="2520.94" y2="710.13"
                        gradientTransform="translate(2693.01 -1528.04) rotate(86.79)" xlink:href="#linear-gradient-8"/>
        <linearGradient id="linear-gradient-18" x1="2666.35" y1="492.27" x2="1905.38" y2="1641.88"
                        gradientTransform="translate(1006.23 -1335.31) rotate(49.02)" xlink:href="#linear-gradient-8"/>
        <linearGradient id="linear-gradient-19" x1="2643.66" y1="525.21" x2="2238.45" y2="1205.48"
                        gradientTransform="translate(-339.19 153.99) rotate(4.02)" xlink:href="#linear-gradient-8"/>
        <linearGradient id="linear-gradient-20" x1="1942.86" y1="1592.7" x2="493.4" y2="2720.99"
                        gradientUnits="userSpaceOnUse">
            <stop offset="0" stop-color="#cb236d"/>
            <stop offset="1" stop-color="#4c246d"/>
        </linearGradient>
        <linearGradient id="_2" x1="2771.53" y1="1753.49" x2="2201.62" y2="2243.56" gradientUnits="userSpaceOnUse">
            <stop offset="0" stop-color="#fdf53f"/>
            <stop offset=".45" stop-color="#eda150"/>
            <stop offset="1" stop-color="#d93c65"/>
        </linearGradient>
        <linearGradient id="_2-2" x1="1778.58" y1="1077.11" x2="1507.85" y2="3266.04" xlink:href="#_2"/>
        <linearGradient id="linear-gradient-21" x1="3986.34" y1="2216.57" x2="4088.3" y2="2216.57"
                        gradientTransform="translate(-2834.4 393.33) rotate(-9.24) skewX(8.44)"
                        gradientUnits="userSpaceOnUse">
            <stop offset="0" stop-color="#2b3582"/>
            <stop offset="1" stop-color="#150e42"/>
        </linearGradient>
        <linearGradient id="linear-gradient-22" x1="2025.2" y1="1837.49" x2="2244.04" y2="877.95"
                        xlink:href="#linear-gradient-20"/>
        <linearGradient id="linear-gradient-23" x1="4051.24" y1="2574.12" x2="3981.33" y2="3067.14"
                        xlink:href="#linear-gradient-21"/>
        <linearGradient id="linear-gradient-24" x1="2355.93" y1="1823" x2="2632" y2="1139.54"
                        xlink:href="#linear-gradient-20"/>
        <linearGradient id="linear-gradient-25" x1="4352.13" y1="2593.67" x2="4278.45" y2="3113.31"
                        xlink:href="#linear-gradient-21"/>
        <linearGradient id="linear-gradient-26" x1="5251.19" y1="2243.99" x2="5372.71" y2="2184.34"
                        gradientTransform="translate(-3459.81 494.93) rotate(-9.24)" xlink:href="#linear-gradient-21"/>
        <linearGradient id="linear-gradient-27" x1="-2278.47" y1="2888" x2="-2069.99" y2="2888"
                        gradientTransform="translate(-432.68 1.67) rotate(170.76) scale(1 -1)"
                        xlink:href="#linear-gradient-21"/>
        <linearGradient id="linear-gradient-28" x1="-2220.58" y1="2948.06" x2="-2153.82" y2="2948.06"
                        gradientTransform="translate(-432.68 1.67) rotate(170.76) scale(1 -1)"
                        xlink:href="#linear-gradient-21"/>
        <linearGradient id="linear-gradient-29" x1="3676.06" y1="3304.57" x2="3697.82" y2="3304.57"
                        gradientTransform="translate(-2534.85 65.93) rotate(-20.8)" xlink:href="#linear-gradient-21"/>
        <linearGradient id="linear-gradient-30" x1="2461.53" y1="2672.97" x2="2793.93" y2="2672.97"
                        gradientTransform="matrix(1, 0, 0, 1, 0, 0)" xlink:href="#linear-gradient-21"/>
        <linearGradient id="linear-gradient-31" x1="2455.22" y1="2849.88" x2="3151.79" y2="2070.27"
                        xlink:href="#linear-gradient-6"/>
        <linearGradient id="linear-gradient-32" x1="1890.05" y1="2674.98" x2="2558.24" y2="2646.69"
                        gradientTransform="matrix(1, 0, 0, 1, 0, 0)" xlink:href="#linear-gradient-21"/>
        <linearGradient id="linear-gradient-33" x1="2533.81" y1="2605.01" x2="2719.37" y2="2605.01"
                        xlink:href="#linear-gradient-6"/>
        <linearGradient id="linear-gradient-34" x1="2529.07" y1="2562.9" x2="2724.35" y2="2562.9"
                        gradientTransform="matrix(1, 0, 0, 1, 0, 0)" xlink:href="#linear-gradient-21"/>
        <linearGradient id="linear-gradient-35" x1="2529.58" y1="2542.35" x2="2724.31" y2="2542.35"
                        gradientTransform="matrix(1, 0, 0, 1, 0, 0)" xlink:href="#linear-gradient-21"/>
        <linearGradient id="linear-gradient-36" x1="2550.04" y1="2546.47" x2="2701.74" y2="2546.47"
                        xlink:href="#linear-gradient-6"/>
        <linearGradient id="linear-gradient-37" x1="-3530.15" y1="1157.06" x2="-3433.9" y2="1398.48"
                        gradientTransform="translate(-3055.26) rotate(-180) scale(1 -1)"
                        xlink:href="#linear-gradient-21"/>
        <linearGradient id="linear-gradient-38" x1="-2068.58" y1="-258.14" x2="-1805.97" y2="-985.36"
                        gradientTransform="translate(-3055.26) rotate(-180) scale(1 -1)"
                        xlink:href="#linear-gradient-20"/>
        <linearGradient id="linear-gradient-39" x1="-3523.17" y1="3024.5" x2="-3405.73" y2="1651.88"
                        gradientTransform="translate(-3055.26) rotate(-180) scale(1 -1)" gradientUnits="userSpaceOnUse">
            <stop offset="0" stop-color="#f9b776"/>
            <stop offset="1" stop-color="#f47960"/>
        </linearGradient>
        <linearGradient id="linear-gradient-40" x1="-2376.53" y1="-369.34" x2="-2113.92" y2="-1096.57"
                        gradientTransform="translate(-3055.26) rotate(-180) scale(1 -1)"
                        xlink:href="#linear-gradient-20"/>
        <linearGradient id="linear-gradient-41" x1="-3286.92" y1="3044.92" x2="-3169.45" y2="1671.95"
                        xlink:href="#linear-gradient-39"/>
        <linearGradient id="_2-3" x1="-3520.27" y1="1640.3" x2="-3461.54" y2="2185.13"
                        gradientTransform="translate(-3055.26) rotate(-180) scale(1 -1)" xlink:href="#_2"/>
        <linearGradient id="linear-gradient-42" x1="-3196.79" y1="1667.05" x2="-3490.41" y2="2136.85"
                        gradientTransform="translate(-3055.26) rotate(-180) scale(1 -1)"
                        xlink:href="#linear-gradient-3"/>
        <linearGradient id="linear-gradient-43" x1="-3536.05" y1="1671.51" x2="-3513.99" y2="1510.12"
                        xlink:href="#linear-gradient-39"/>
        <linearGradient id="linear-gradient-44" x1="-3445.12" y1="1750.16" x2="-3298.57" y2="1750.16"
                        xlink:href="#linear-gradient-39"/>
        <linearGradient id="linear-gradient-45" x1="-3687.74" y1="976.21" x2="-3495.25" y2="633.64"
                        gradientTransform="translate(-2907.55 -196.95) rotate(-168.8) scale(1 -1)"
                        xlink:href="#linear-gradient-39"/>
        <linearGradient id="linear-gradient-46" x1="-3646.34" y1="677.88" x2="-3550.09" y2="919.32"
                        gradientTransform="translate(-2907.55 -196.95) rotate(-168.8) scale(1 -1)"
                        xlink:href="#linear-gradient-21"/>
        <linearGradient id="linear-gradient-47" x1="-3646.76" y1="999.24" x2="-3454.27" y2="656.66"
                        gradientTransform="translate(-2907.55 -196.95) rotate(-168.8) scale(1 -1)"
                        xlink:href="#linear-gradient-39"/>
        <linearGradient id="linear-gradient-48" x1="-853.78" y1="3068.6" x2="-847.47" y2="2879.12"
                        gradientTransform="translate(-9.06) rotate(-180) scale(1 -1)" gradientUnits="userSpaceOnUse">
            <stop offset="0" stop-color="#7c27dd"/>
            <stop offset="1" stop-color="#2b41d9"/>
        </linearGradient>
        <linearGradient id="linear-gradient-49" x1="-628.66" y1="2583.68" x2="-1019.05" y2="2890.21"
                        gradientTransform="translate(-9.06) rotate(-180) scale(1 -1)" xlink:href="#linear-gradient-6"/>
        <linearGradient id="linear-gradient-50" x1="4620.27" y1="2588.36" x2="4599.08" y2="2773.3"
                        gradientTransform="translate(-3768.03)" gradientUnits="userSpaceOnUse">
            <stop offset="0" stop-color="#c4421b"/>
            <stop offset="1" stop-color="#5c0e16"/>
        </linearGradient>
        <linearGradient id="linear-gradient-51" x1="4980.02" y1="2674.65" x2="4602.5" y2="2971.08"
                        gradientTransform="translate(-3768.03)" xlink:href="#linear-gradient-6"/>
        <linearGradient id="linear-gradient-52" x1="4871.15" y1="3185.77" x2="4877.47" y2="2996.3"
                        gradientTransform="translate(-3768.03)" xlink:href="#linear-gradient-48"/>
        <linearGradient id="linear-gradient-53" x1="4843.49" y1="2612.02" x2="4823.67" y2="2785.01"
                        xlink:href="#linear-gradient-50"/>
        <linearGradient id="linear-gradient-54" x1="2909.29" y1="2606.49" x2="2933.07" y2="1861.43"
                        gradientTransform="translate(-1956.2)" xlink:href="#linear-gradient-21"/>
        <linearGradient id="linear-gradient-55" x1="852.94" y1="2018.51" x2="927.01" y2="1543.79"
                        gradientTransform="matrix(1, 0, 0, 1, 0, 0)" xlink:href="#linear-gradient-3"/>
        <linearGradient id="linear-gradient-56" x1="2823.54" y1="1416.02" x2="2918.56" y2="1416.02"
                        gradientTransform="translate(-1956.2)" xlink:href="#linear-gradient-50"/>
        <linearGradient id="linear-gradient-57" x1="12440.75" y1="-834.81" x2="12607.22" y2="-875.33"
                        gradientTransform="translate(-1655.43 816.72) rotate(-28.87)" xlink:href="#linear-gradient-50"/>
        <linearGradient id="linear-gradient-58" x1="1952.98" y1="1639.98" x2="2124.44" y2="1639.98"
                        gradientTransform="translate(-1655.43 816.72) rotate(-28.87)" xlink:href="#linear-gradient-21"/>
        <linearGradient id="linear-gradient-59" x1="12435" y1="-858.95" x2="12601.46" y2="-899.47"
                        gradientTransform="translate(-1655.43 816.72) rotate(-28.87)" xlink:href="#linear-gradient-50"/>
        <linearGradient id="linear-gradient-60" x1="690.74" y1="1993.2" x2="764.81" y2="1518.49"
                        gradientTransform="matrix(1, 0, 0, 1, 0, 0)" xlink:href="#linear-gradient-3"/>
        <linearGradient id="linear-gradient-61" x1="885" y1="1759.53" x2="827.76" y2="2032.24"
                        gradientTransform="matrix(1, 0, 0, 1, 0, 0)" xlink:href="#linear-gradient-50"/>
        <linearGradient id="linear-gradient-62" x1="1105.29" y1="2057.88" x2="1179.36" y2="1583.17"
                        gradientTransform="matrix(1, 0, 0, 1, 0, 0)" xlink:href="#linear-gradient-3"/>
        <linearGradient id="linear-gradient-63" x1="1051.35" y1="1794.44" x2="994.11" y2="2067.15"
                        gradientTransform="matrix(1, 0, 0, 1, 0, 0)" xlink:href="#linear-gradient-50"/>
        <linearGradient id="linear-gradient-64" x1="-2.61" y1="2391.18" x2="28.84" y2="2104.13"
                        gradientTransform="translate(-.26 187.14) rotate(-18.95)" xlink:href="#linear-gradient-39"/>
        <linearGradient id="linear-gradient-65" x1="16.31" y1="2386.8" x2="44.77" y2="2127.09"
                        gradientTransform="translate(-.26 187.14) rotate(-18.95)" xlink:href="#linear-gradient-39"/>
        <linearGradient id="linear-gradient-66" x1="-41.74" y1="2381.61" x2="-10.28" y2="2094.56"
                        gradientTransform="translate(1092.51 141.22) rotate(-165.07) scale(1 -1)"
                        xlink:href="#linear-gradient-39"/>
        <linearGradient id="linear-gradient-67" x1="-22.82" y1="2377.23" x2="5.64" y2="2117.52"
                        gradientTransform="translate(1092.51 141.22) rotate(-165.07) scale(1 -1)"
                        xlink:href="#linear-gradient-39"/>
        <linearGradient id="linear-gradient-68" x1="670.5" y1="2739.97" x2="718.86" y2="2739.97"
                        xlink:href="#linear-gradient-20"/>
        <linearGradient id="linear-gradient-69" x1="643.42" y1="2584.51" x2="715.18" y2="2584.51"
                        gradientTransform="matrix(1, 0, 0, 1, 0, 0)" xlink:href="#linear-gradient-39"/>
        <linearGradient id="linear-gradient-70" x1="425.62" y1="2739.97" x2="473.98" y2="2739.97"
                        gradientTransform="translate(1042.78) rotate(-180) scale(1 -1)"
                        xlink:href="#linear-gradient-20"/>
        <linearGradient id="linear-gradient-71" x1="398.54" y1="2584.51" x2="470.3" y2="2584.51"
                        gradientTransform="translate(1042.78) rotate(-180) scale(1 -1)"
                        xlink:href="#linear-gradient-39"/>
        <linearGradient id="linear-gradient-72" x1="682.41" y1="2128.69" x2="514.7" y2="2412.83"
                        gradientTransform="matrix(1, 0, 0, 1, 0, 0)" xlink:href="#linear-gradient-8"/>
        <linearGradient id="linear-gradient-73" x1="812.84" y1="2528.22" x2="777.53" y2="2221.86"
                        gradientTransform="translate(13.9 -35.25) rotate(4.08)" xlink:href="#linear-gradient-8"/>
        <linearGradient id="linear-gradient-74" x1="684.9" y1="2168.2" x2="657.23" y2="2228.33"
                        xlink:href="#linear-gradient-20"/>
        <linearGradient id="linear-gradient-75" x1="372.5" y1="2010.05" x2="444.85" y2="2010.05"
                        gradientTransform="translate(384.52 -61.71) rotate(1.81)" xlink:href="#linear-gradient-21"/>
        <linearGradient id="linear-gradient-76" x1="132.61" y1="2027.29" x2="223.4" y2="2027.29"
                        gradientTransform="translate(384.52 -61.71) rotate(1.81)" xlink:href="#linear-gradient-21"/>
        <linearGradient id="linear-gradient-77" x1="387.63" y1="1944.33" x2="306.11" y2="2068.11"
                        gradientTransform="translate(384.52 -61.71) rotate(1.81)" xlink:href="#linear-gradient-21"/>
        <linearGradient id="linear-gradient-78" x1="629.62" y1="2220.16" x2="636.61" y2="2149.04"
                        gradientTransform="matrix(1, 0, 0, 1, 0, 0)" xlink:href="#linear-gradient-39"/>
        <linearGradient id="linear-gradient-79" x1="290.79" y1="1970.22" x2="300.1" y2="1831.66"
                        gradientTransform="translate(389.47 50.15) rotate(2.02) scale(1 1.05) skewX(.45)"
                        xlink:href="#linear-gradient-39"/>
        <linearGradient id="linear-gradient-80" x1="69.92" y1="2198.98" x2="79.25" y2="2060.25"
                        gradientTransform="translate(378.81 -41.39) rotate(-6.63)" xlink:href="#linear-gradient-39"/>
        <linearGradient id="linear-gradient-81" x1="242.74" y1="2168.23" x2="252.07" y2="2029.5"
                        gradientTransform="translate(384.52 -61.71) rotate(1.81)" xlink:href="#linear-gradient-39"/>
        <linearGradient id="linear-gradient-82" x1="382.73" y1="1941.64" x2="301.22" y2="2065.43"
                        gradientTransform="translate(384.52 -61.71) rotate(1.81)" xlink:href="#linear-gradient-21"/>
    </defs>
    <g id="Illustration">
        <g>
            <path class="cls-86"
                  d="m2474.37,2388.23c-56.88,59.62-110.71,98.07-153.23,128.45-499.88,357.07-1091.36,252.99-1217.07,227.57-185.63-37.54-544.45-110.09-803.87-413.81C-92.28,1870.94-31.17,1147.01,273.26,669.13c55.69-87.41,349.83-572.57,947.69-650.37,361.82-47.09,783.58,47.88,1089,302.63,641.12,534.75,595.48,1615.03,164.41,2066.83Z"/>
            <g>
                <path class="cls-21"
                      d="m2384.94,11.55c62.58,191.14,380.63,1319.21-640.28,1828.02,0,0-403.44-685.1,610.98-1833.58,8.87-10.05,25.2-6.92,29.29,5.57Z"/>
                <path class="cls-27"
                      d="m2319.02,205.47c-8.38,69.65-19.34,138.85-31.28,207.91-12.11,69.02-25.6,137.8-40.43,206.28-14.8,68.5-31.05,136.69-48.86,204.48-17.86,67.77-36.83,135.28-57.92,202.14-21.17,66.83-43.61,133.29-68.44,198.89-6.05,16.46-12.73,32.68-19.07,49.03l-9.63,24.48-10.18,24.26c-6.88,16.14-13.41,32.42-20.57,48.43l-21.6,48c-3.51,8.04-7.38,15.91-11.21,23.81l-11.46,23.7-11.45,23.7-12.13,23.37-12.16,23.36c-4.1,7.76-7.97,15.64-12.39,23.23l-25.83,45.92c-35.5,60.62-73.99,119.54-116.36,175.74-2.24,2.97-6.46,3.56-9.43,1.32-2.97-2.24-3.56-6.46-1.32-9.43l.02-.02.05-.07c42.23-55.47,80.7-113.77,116.25-173.83l25.88-45.51c4.43-7.52,8.32-15.35,12.43-23.05l12.2-23.17,12.17-23.19,11.51-23.53,11.51-23.53c3.84-7.84,7.73-15.66,11.26-23.65l21.73-47.69c7.2-15.92,13.78-32.11,20.71-48.15l10.25-24.12,9.71-24.35c6.39-16.27,13.13-32.4,19.23-48.78,25.05-65.28,47.74-131.46,69.17-198.03,21.35-66.61,40.59-133.89,58.73-201.46,18.09-67.59,34.63-135.59,49.72-203.92,15.13-68.32,28.92-136.94,41.33-205.81,12.23-68.89,23.51-138.03,32.18-207.39v-.05c.2-1.56,1.63-2.67,3.19-2.48,1.56.2,2.67,1.61,2.48,3.17Z"/>
            </g>
            <g>
                <path class="cls-74"
                      d="m1785.02,2350.03s-72.53-264.64,121.6-489.13c180.12-208.29,633.5-684.19,683.06-980.37,2.19-13.12,24.9-5.46,29.61,10.03,50.58,166.13,143.98,577.11-27.22,942.86-220.77,471.66-807.06,516.6-807.06,516.6Z"/>
                <path class="cls-23"
                      d="m2578.19,1161.28c5,29.15,6.37,58.84,6.02,88.43-.33,29.6-2.53,59.22-6.73,88.58-8.48,58.68-23.61,116.51-45.41,171.8-10.88,27.64-23.23,54.74-37.31,80.93l-5.18,9.87c-1.78,3.26-3.68,6.46-5.51,9.69l-11.12,19.33-11.87,18.88c-2.01,3.13-3.91,6.33-6,9.4l-6.3,9.2c-4.22,6.12-8.35,12.3-12.65,18.36l-13.31,17.89-6.67,8.94-6.99,8.68-13.99,17.36c-9.68,11.26-19.45,22.52-29.4,33.47-10.05,10.85-19.99,21.79-30.18,32.51-80.83,86.39-166.81,167.82-254.64,246.76-43.74,39.65-87.73,78.99-129.42,120.53-20.76,20.83-40.83,42.36-58.91,65.48-8.95,11.62-17.37,23.63-25.05,36.11-7.54,12.55-14.29,25.58-19.87,39.15v.03c-.36.86-1.35,1.27-2.21.92-.84-.35-1.25-1.3-.94-2.15,5.2-13.93,11.62-27.39,18.86-40.39,7.39-12.91,15.71-25.25,24.47-37.25,17.74-23.84,37.48-46.05,57.88-67.52,20.41-21.48,41.81-41.92,63.22-62.29,21.46-20.32,43.11-40.41,64.71-60.52,21.61-20.11,43.17-40.24,64.57-60.53,21.5-20.18,42.8-40.57,63.91-61.14,42.19-41.17,83.63-83.09,123.94-126.07,10.15-10.68,20.04-21.59,30.05-32.41,5.07-5.37,9.73-10.98,14.62-16.46,4.81-5.53,9.75-10.94,14.48-16.54l13.89-17.04,6.95-8.52,6.62-8.78,13.21-17.57c4.27-5.95,8.37-12.02,12.57-18.03l6.26-9.04c2.08-3.02,3.97-6.15,5.96-9.23l11.83-18.52,11.19-18.92c1.85-3.16,3.76-6.29,5.55-9.49l5.22-9.67c14.23-25.63,26.61-52.25,37.84-79.33,22.68-54.09,38.89-110.93,48.54-168.9,4.82-28.99,8.24-58.25,9.48-87.67.71-14.7.89-29.44.48-44.16-.36-14.72-1.1-29.47-3.05-44.08-.02-.12.05-.22.17-.24.11-.02.22.06.24.17Z"/>
            </g>
            <g class="cls-20">
                <path class="cls-82"
                      d="m.41,574.78c-3.88,169.92,4.66,1154.68,722.64,1189.36,0,0,123.78-672.02-705.68-1203.97-7.26-4.65-16.71,3.51-16.96,14.61Z"/>
                <path class="cls-25"
                      d="m80.28,699.67c13.36,47.06,28.35,93.76,43.99,140.17,15.67,46.42,32.24,92.53,49.69,138.29,34.94,91.51,73.2,181.79,116.14,269.76,21.29,44.07,44.17,87.36,68.18,129.97,23.9,42.68,49.66,84.28,77.05,124.72l10.33,15.13,5.16,7.56,5.39,7.4,21.62,29.54c15.08,19.17,29.95,38.53,46.12,56.76,31.92,36.79,66.26,71.51,103.99,102.07l.05.04c2.89,2.34,3.34,6.58,1,9.47-2.34,2.89-6.58,3.34-9.47,1l-.03-.03c-38.33-31.45-72.95-66.94-105.01-104.39-16.26-18.57-31.15-38.22-46.24-57.68l-21.62-29.95-5.39-7.5-5.15-7.66-10.31-15.31c-27.33-40.92-52.97-82.95-76.7-125.99-23.84-42.98-46.52-86.59-67.6-130.96-42.51-88.57-80.27-179.31-114.67-271.24-17.19-45.97-33.47-92.28-48.87-138.88-15.36-46.62-30.05-93.42-43.16-140.79-.42-1.52.47-3.09,1.99-3.51,1.51-.42,3.08.46,3.5,1.97v.04Z"/>
            </g>
            <g>
                <path class="cls-64"
                      d="m392.55,12.94c-47.11,174.39-279.83,1200.43,643.76,1591.76,0,0,327.09-636.04-618.12-1598.52-8.27-8.42-22.56-4.63-25.64,6.77Z"/>
                <path class="cls-26"
                      d="m464.41,181.24c5.5,60.36,13.53,120.61,22.74,180.59,9.26,59.99,19.98,119.75,32.17,179.21,24.42,118.88,54.48,236.67,92.14,351.98,37.77,115.21,83.01,228.19,140.03,335.05,14.16,26.75,29.34,52.95,45.16,78.72,15.79,25.8,32.56,50.97,50.27,75.46,35.2,49.1,74.64,95.13,118.21,136.78l.04.04c2.69,2.57,2.78,6.83.21,9.52-2.57,2.69-6.83,2.78-9.52.21l-.02-.02c-44.06-42.56-83.75-89.42-119.07-139.25-17.76-24.84-34.56-50.36-50.35-76.46-15.82-26.08-30.98-52.57-45.1-79.59-56.85-107.94-101.68-221.69-138.97-337.5-37.18-115.92-66.67-234.16-90.51-353.42-11.9-59.65-22.31-119.58-31.27-179.72-8.91-60.16-16.63-120.46-21.83-181.14-.13-1.57,1.03-2.95,2.6-3.08,1.57-.13,2.94,1.02,3.08,2.58v.06Z"/>
            </g>
            <g>
                <path class="cls-42"
                      d="m2451.08,736.45c-4.85-75-50.14-141.43-118.03-173.68l-879.55-417.73c-56.33-26.75-121.7-26.75-178.03,0l-879.55,417.73c-67.89,32.24-113.18,98.68-118.03,173.68-82.5,1275.27,735.19,1739.93,1003.23,1857.31,53.16,23.28,113.56,23.28,166.72,0,268.05-117.38,1085.74-582.03,1003.23-1857.31Z"/>
                <path class="cls-24"
                      d="m1098.44,329.64c-7.89,0-15.46-4.44-19.06-12.04-5-10.52-.52-23.1,10-28.09l207.82-98.7c10.53-5,23.1-.52,28.09,10,5,10.52.52,23.1-10,28.09l-207.82,98.7c-2.92,1.39-6,2.04-9.03,2.04Z"/>
                <path class="cls-24"
                      d="m345.15,1017.97c-11.32,0-20.68-8.98-21.06-20.38-2.8-83.21-1.33-169.97,4.36-257.87,3.66-56.52,37.84-106.79,89.21-131.19l591.68-281.02c10.52-5,23.1-.52,28.09,10,5,10.52.52,23.1-10,28.09l-591.68,281.02c-37.56,17.84-62.56,54.55-65.22,95.82-5.6,86.52-7.04,171.89-4.29,253.72.39,11.64-8.73,21.39-20.36,21.78-.24,0-.48.01-.72.01Z"/>
                <path class="cls-69"
                      d="m2238.39,786.23c-.97-19.01-12.29-35.98-29.49-44.15l-822.23-390.51c-14.04-6.67-30.33-6.67-44.37,0l-822.23,390.51c-17.2,8.17-28.52,25.14-29.49,44.15-24.32,475.72,85.57,872.64,326.82,1180.28,183.94,234.55,399.1,360.24,525.19,418.88,13.89,6.46,29.88,6.46,43.77,0,126.08-58.64,341.26-184.33,525.19-418.88,241.26-307.64,351.14-704.56,326.83-1180.28Z"/>
            </g>
            <g>
                <g>
                    <circle class="cls-83" cx="1283.31" cy="1170.19" r="142.85"
                            transform="translate(-451.58 1250.17) rotate(-45)"/>
                    <circle class="cls-71" cx="1283.31" cy="1170.19" r="138.1"
                            transform="translate(-451.58 1250.17) rotate(-45)"/>
                    <path class="cls-24"
                          d="m1173.41,1109.59c-.7-.05-1.4-.26-2.04-.64-2.19-1.31-2.91-4.14-1.6-6.33,25.71-43.12,72.76-67.72,122.8-64.2,7.99.56,15.93,1.84,23.62,3.81,2.47.63,3.96,3.15,3.33,5.61-.63,2.47-3.14,3.98-5.62,3.33-7.15-1.82-14.54-3.02-21.98-3.54-46.54-3.27-90.31,19.61-114.22,59.71-.92,1.55-2.61,2.36-4.29,2.24Z"/>
                    <circle class="cls-28" cx="1286.1" cy="1173.4" r="116.88"
                            transform="translate(-453.03 1253.09) rotate(-45)"/>
                    <path class="cls-52"
                          d="m1268.56,1259.28l.89-12.68c-13.19-1.46-26.05-5.5-35.05-10.22-3.22-1.68-4.64-5.53-3.45-8.95l4.05-11.59c1.49-4.25,6.36-6.16,10.38-4.13,8.94,4.51,20.11,8.37,32.38,9.23,12.74.9,22.54-2.75,23.16-11.61.56-7.99-6.44-13.25-23.81-19.24-24.77-8.68-42.13-20.97-40.57-43.2,1.41-20.08,17.17-34.37,42.93-36.68l.89-12.69c.29-4.08,3.83-7.16,7.91-6.87l7.45.52c4.08.29,7.16,3.83,6.87,7.91l-.8,11.39c12.2,1.35,20.96,4.07,27.86,7.05,3.53,1.53,5.24,5.57,3.97,9.2l-3.73,10.72c-1.44,4.13-6.1,6.13-10.08,4.29-6.34-2.92-15.36-6.13-27.32-6.97-15.11-1.06-19.87,4.89-20.26,10.51-.49,6.91,8.25,12.29,27.47,19.72,27.47,10.39,38.31,22.87,36.84,43.81-1.35,19.21-16.81,35.48-44.75,37.86l-1,14.2c-.29,4.08-3.83,7.16-7.91,6.87l-7.45-.52c-4.08-.29-7.16-3.83-6.87-7.91Z"/>
                </g>
                <g>
                    <circle class="cls-48" cx="1680.56" cy="880.21" r="233.13"
                            transform="translate(-130.18 1446.14) rotate(-45)"/>
                    <circle class="cls-90" cx="1680.56" cy="880.21" r="225.38"
                            transform="translate(-130.18 1446.14) rotate(-45)"/>
                    <path class="cls-24"
                          d="m1501.43,778.1c-.65-.05-1.31-.24-1.91-.6-2.05-1.22-2.73-3.88-1.5-5.93,41.33-69.32,116.98-108.87,197.43-103.22,12.84.9,25.61,2.96,37.97,6.13,2.32.59,3.72,2.95,3.12,5.27-.59,2.31-2.95,3.74-5.27,3.12-11.86-3.03-24.11-5.01-36.43-5.88-77.17-5.43-149.74,32.51-189.39,99.01-.87,1.45-2.45,2.21-4.03,2.1Z"/>
                    <circle class="cls-28" cx="1685.11" cy="885.45" r="190.75"
                            transform="translate(-132.55 1450.9) rotate(-45)"/>
                    <path class="cls-91"
                          d="m1656.5,1025.6l1.46-20.7c-21.52-2.38-42.51-8.98-57.2-16.68-5.25-2.75-7.58-9.02-5.62-14.61l6.61-18.91c2.43-6.94,10.38-10.06,16.94-6.75,14.6,7.36,32.81,13.65,52.84,15.06,20.79,1.46,36.78-4.5,37.8-18.94.92-13.03-10.52-21.63-38.86-31.41-40.43-14.17-68.76-34.22-66.21-70.51,2.3-32.77,28.02-56.1,70.06-59.87l1.46-20.7c.47-6.66,6.25-11.68,12.91-11.21l12.16.85c6.66.47,11.68,6.25,11.21,12.91l-1.31,18.59c19.91,2.2,34.21,6.64,45.46,11.5,5.76,2.49,8.55,9.09,6.48,15.02l-6.09,17.49c-2.35,6.75-9.96,10-16.45,7.01-10.34-4.76-25.06-10-44.58-11.37-24.66-1.73-32.42,7.99-33.07,17.15-.79,11.27,13.46,20.06,44.82,32.18,44.84,16.96,62.52,37.32,60.12,71.5-2.2,31.36-27.44,57.91-73.03,61.78l-1.63,23.17c-.47,6.66-6.25,11.68-12.91,11.21l-12.16-.86c-6.66-.47-11.68-6.25-11.21-12.91Z"/>
                </g>
                <g>
                    <circle class="cls-39" cx="1804.42" cy="1410.9" r="239.89"
                            transform="translate(-469.16 1689.17) rotate(-45)"/>
                    <circle class="cls-32" cx="1804.42" cy="1410.9" r="231.91"
                            transform="translate(-469.16 1689.17) rotate(-45)"/>
                    <path class="cls-24"
                          d="m1620.11,1305.71c-.65-.05-1.31-.24-1.91-.6-2.05-1.23-2.73-3.88-1.5-5.93,42.5-71.29,120.3-111.96,203.04-106.15,13.2.93,26.34,3.05,39.05,6.3,2.32.59,3.72,2.95,3.12,5.27-.59,2.32-2.93,3.73-5.27,3.12-12.21-3.12-24.83-5.16-37.51-6.05-79.46-5.59-154.17,33.47-194.99,101.94-.86,1.45-2.45,2.21-4.03,2.1Z"/>
                    <circle class="cls-28" cx="1809.11" cy="1416.3" r="196.28"
                            transform="translate(-471.6 1694.06) rotate(-45)"/>
                    <path class="cls-56"
                          d="m1779.66,1560.51l1.5-21.3c-22.14-2.45-43.74-9.24-58.86-17.16-5.4-2.83-7.8-9.28-5.79-15.04l6.81-19.46c2.5-7.14,10.68-10.35,17.43-6.94,15.02,7.58,33.77,14.05,54.37,15.5,21.39,1.5,37.85-4.63,38.89-19.49.94-13.41-10.82-22.25-39.99-32.32-41.6-14.58-70.75-35.21-68.13-72.55,2.37-33.72,28.83-57.72,72.09-61.6l1.5-21.3c.48-6.85,6.43-12.02,13.28-11.54l12.52.88c6.86.48,12.02,6.43,11.54,13.28l-1.34,19.13c20.49,2.27,35.2,6.83,46.78,11.84,5.93,2.56,8.79,9.35,6.67,15.45l-6.27,18c-2.42,6.94-10.25,10.29-16.93,7.21-10.64-4.9-25.79-10.29-45.87-11.7-25.38-1.78-33.37,8.22-34.03,17.64-.82,11.6,13.85,20.65,46.12,33.12,46.13,17.45,64.33,38.4,61.86,73.57-2.27,32.26-28.23,59.58-75.15,63.57l-1.68,23.84c-.48,6.85-6.43,12.02-13.28,11.54l-12.52-.88c-6.85-.48-12.02-6.43-11.54-13.28Z"/>
                </g>
                <g>
                    <circle class="cls-29" cx="2131.27" cy="1033.41" r="191.85"
                            transform="translate(838.02 3017.79) rotate(-82.77)"/>
                    <circle class="cls-34" cx="2131.27" cy="1033.41" r="185.47"
                            transform="translate(-106.5 1809.71) rotate(-45)"/>
                    <path class="cls-24"
                          d="m1983.78,950.54c-.71-.05-1.43-.26-2.08-.66-2.24-1.34-2.98-4.24-1.64-6.48,34.24-57.43,96.91-90.19,163.56-85.51,10.62.75,21.2,2.45,31.46,5.08,2.53.64,4.05,3.22,3.41,5.75-.65,2.53-3.2,4.09-5.75,3.41-9.7-2.48-19.72-4.09-29.78-4.8-63.06-4.43-122.37,26.57-154.77,80.91-.94,1.59-2.67,2.42-4.39,2.3Z"/>
                    <circle class="cls-28" cx="2135.02" cy="1037.73" r="156.98"
                            transform="translate(-108.45 1813.63) rotate(-45)"/>
                    <path class="cls-81"
                          d="m2111.47,1153.06l1.2-17.04c-17.71-1.96-34.98-7.39-47.07-13.73-4.32-2.26-6.24-7.42-4.63-12.02l5.44-15.56c2-5.71,8.54-8.28,13.94-5.55,12.01,6.06,27.01,11.24,43.48,12.4,17.11,1.2,30.27-3.7,31.11-15.59.75-10.73-8.65-17.8-31.98-25.85-33.27-11.66-56.58-28.16-54.49-58.03,1.9-26.96,23.06-46.16,57.66-49.27l1.2-17.04c.39-5.48,5.14-9.61,10.62-9.23l10.01.7c5.48.39,9.61,5.14,9.23,10.63l-1.08,15.3c16.39,1.81,28.15,5.46,37.41,9.47,4.74,2.05,7.03,7.48,5.33,12.36l-5.01,14.4c-1.93,5.55-8.2,8.23-13.54,5.77-8.51-3.92-20.62-8.23-36.69-9.36-20.3-1.43-26.68,6.57-27.21,14.11-.65,9.28,11.08,16.51,36.89,26.49,36.9,13.96,51.45,30.71,49.47,58.84-1.81,25.8-22.58,47.65-60.1,50.84l-1.34,19.07c-.39,5.48-5.14,9.61-10.62,9.23l-10.01-.7c-5.48-.39-9.61-5.14-9.23-10.62Z"/>
                </g>
            </g>
            <g>
                <path class="cls-41"
                      d="m1804.28,1734.57h-356.06c-43.07,6.73-48.81,50.89-48.81,75.86l2.87,106.85,57.43,4.61,2.87-97.59c0-24.98,6.21-35.86,31.59-35.86h268.48c25.37,0,22.37,14.02,22.37,38.99v91.89l63.97-1.44v-135.68c0-24.98-19.33-47.64-44.7-47.64Z"/>
                <path class="cls-89"
                      d="m2223.51,1872.61h-142.22v801.3h142.22c42.82,0,76.62-32.67,76.62-75.49v-648.94c0-42.82-33.81-76.86-76.62-76.86Z"/>
                <rect class="cls-58" x="1066.32" y="1871.94" width="1128.47" height="804" rx="27" ry="27"/>
                <g>
                    <path class="cls-24"
                          d="m1651.95,2424.9l-75.57-2.9c-12.12-.47-21.65-10.55-21.42-22.68l5.11-275.97c.23-12.53,10.75-22.41,23.27-21.85l71.93,3.22c11.95.53,21.35,10.41,21.28,22.38l-1.47,275.66c-.07,12.59-10.55,22.63-23.14,22.15Z"/>
                    <path class="cls-24"
                          d="m1450.71,2296.03l.4-79.44c.05-10.18,8.42-18.36,18.6-18.19l289.34,5.02c9.75.17,17.65,7.96,17.96,17.7l2.48,78.82c.33,10.43-8.12,19.01-18.55,18.85l-292.22-4.4c-10.02-.15-18.06-8.35-18.01-18.37Z"/>
                </g>
            </g>
            <g>
                <g>
                    <path class="cls-62"
                          d="m1830.68,1911.02l-11.61,1.12c-16.24,2.35-33.26-7.67-37.95-22.39l-1.67-5.25c-4.69-14.72,4.76-28.45,21.05-30.65l19.45-1.99c15.99-2.17,56.23,4,60.85,18.49l1.65,5.17c4.62,14.49-35.8,33.2-51.75,35.51Z"/>
                    <path class="cls-72"
                          d="m2157.11,2536.66l-172.62-63.07c-43.21-15.79-83.1-41.11-115.12-73.24-32.23-32.33-56.31-71.37-69.5-112.74l-92-288.65c-17.97-56.37,16.4-109.5,76.17-121.93,4.75-.99,9.47,1.83,10.94,6.45l1.14,3.59c1.68,5.27-1.48,10.8-6.84,12.14-45.16,11.27-70.58,52.43-56.72,95.92l91.66,287.58c24.45,76.71,87.93,140.52,168.48,170.19l172.08,63.39-7.67,20.36Z"/>
                    <path class="cls-80"
                          d="m2166.81,2544.88c-3.96,1.01-8.32.86-12.54-.67l-172.82-62.95c-44.61-16.25-85.78-42.34-118.85-75.48-33.28-33.35-58.16-73.64-71.77-116.35-3.38-10.61,3.42-21.1,15.15-23.42,11.69-2.31,23.86,4.36,27.22,14.9,23.6,74.04,84.82,135.66,162.55,164.37l171.88,63.51c10.47,3.87,15.97,14.88,12.32,24.64-2.2,5.86-7.2,9.94-13.13,11.45Z"/>
                    <path class="cls-70"
                          d="m2221.75,2520.35l-18.3-13.7,103.15-126.81c45.3-55.69,58.48-130.64,35.95-201.32l-84.46-264.99c-13.69-42.97-61.26-72.75-106.63-66.3l-6.54-20.52c57.11-7.92,116.8,29.64,133.99,83.59l84.17,264.09c12.06,37.85,14.98,77.67,8.4,115.31-6.62,37.86-22.88,73.73-47.19,103.8l-102.55,126.85Z"/>
                    <path class="cls-63"
                          d="m2218.45,2531.76c-5.84,1.48-12.44.36-17.73-3.59-8.83-6.59-10.64-18.51-4.05-26.6l103.37-126.8c43.89-53.83,56.68-126.33,34.89-194.73-3.1-9.74,2.42-19.22,12.31-21.18,9.86-1.95,20.33,4.32,23.41,14,12.42,38.97,15.43,79.97,8.68,118.73-6.79,38.99-23.51,75.94-48.51,106.94l-102.33,126.86c-2.61,3.23-6.16,5.38-10.05,6.36Z"/>
                    <path class="cls-92"
                          d="m2123.16,1867.79l20.57-2.64c14.61-2.11,22.82-15.07,18.4-28.94l-1.58-4.95c-4.42-13.87-19.83-23.52-34.48-21.53l-17.63,1.8c-14.9,2.02-45.17,18.62-40.69,32.7l1.6,5.02c4.26,21.96,38.95,20.69,53.81,18.54Z"/>
                    <path class="cls-75"
                          d="m2196.09,2549.41c-23.15,5.92-48.89,4.29-72.86-6.09l-33.86-14.66c-14.66-6.35-21.45-22.43-15.14-35.86,6.29-13.39,23.21-19.01,37.74-12.61l33.57,14.78c22.27,9.81,47.95,3.53,61.09-14.78l19.95-27.79c8.36-11.64,25.36-14.09,37.98-5.54,12.58,8.53,16.1,24.82,7.87,36.45l-19.65,27.77c-13.69,19.35-33.95,32.49-56.72,38.32Z"/>
                    <path class="cls-38"
                          d="m2219.46,2622.15c-14.75,3.96-30.44-4.35-34.97-18.59l-23.3-73.1c-4.54-14.23,3.87-28.76,18.72-32.42,14.77-3.65,30.35,4.85,34.84,18.96l23.1,72.47c4.5,14.11-3.71,28.73-18.39,32.68Z"/>
                    <path class="cls-78"
                          d="m2095.32,1841.95c3,7.89.88,16.02-4.74,18.15-5.62,2.13-12.6-2.54-15.6-10.43-3-7.89-.88-16.02,4.74-18.15,5.62-2.13,12.6,2.54,15.6,10.43Z"/>
                </g>
                <g>
                    <g>
                        <path class="cls-79"
                              d="m2793.93,2673c.39,27.6-74.35,49.97-166.07,49.97s-163.02-22.54-166.07-49.97c-5.38-48.44,74.35-49.97,166.07-49.97s165.3-3.84,166.07,49.97Z"/>
                        <path class="cls-57"
                              d="m2791.62,2658.39c0,24.32-72.05,43.05-163.76,43.05s-166.07-19.72-166.07-44.04,74.35-44.04,166.07-44.04,163.76,20.7,163.76,45.03Z"/>
                    </g>
                    <path class="cls-47"
                          d="m2001.55,2791.19c64.9,0,141.44-10.33,214.67-31.2,100.16-28.55,151.03-109.65,214.59-150.84,50.8-32.93,77.61,8.63,141.11,21.64l15.05-23.52c-69.85-7.53-108.45-60.64-173.1-18.81-63.97,41.39-106.78,125.43-203.29,152.94-154.95,44.17-310.41,36.37-345.9-.1-6.15-6.32-7.71-12.83-4.89-20.48,13.72-37.24,96.03-36.6,175.64-36,38.86.3,79.06.61,114.64-3.12,33.92-3.55,57.56-16.34,70.26-38,24.7-42.14-2.81-101.52-3.99-104.02l-18.17,8.07,9.08-4.04-9.09,4.03c.24.53,24.44,52.95,4.76,86.42-9.35,15.92-27.86,25.43-55,28.27-34.44,3.6-74.04,3.3-112.35,3.01-90.59-.7-176.12-1.35-194.62,48.86-5.4,14.65-2.22,28.59,9.18,40.31,23.64,24.29,80.59,36.58,151.39,36.59Z"/>
                    <g>
                        <path class="cls-76"
                              d="m2696.33,2658.31c-26.72,16.34-110.28,16.98-138.64,1.13-3.53-1.97-7.59-9.37-7.04-13.68,4.33-34.12-6.6-70.51-16.84-106.7l185.56.61c-7.77,39.52-19.05,72.57-18.32,105.58.11,5.17-.6,10.55-4.72,13.07Z"/>
                        <path class="cls-68"
                              d="m2724.35,2539.23h-195.27v21.23c0,.89.2,1.74.49,2.53,0,0,0,.04,0,.06,0,12.99,43.6,23.52,97.37,23.52s97.37-10.53,97.37-23.52c0-.39-.03-.77-.1-1.15.07-.39.14-.79.14-1.2v-21.47Z"/>
                        <ellipse class="cls-45" cx="2626.95" cy="2542.35" rx="97.37" ry="23.52"/>
                        <path class="cls-40"
                              d="m2701.74,2546.12c0,9.55-40.61,17.64-80.13,17.64s-71.56-7.74-71.56-17.29,32.04-17.29,71.56-17.29,80.13,7.39,80.13,16.93Z"/>
                    </g>
                </g>
            </g>
            <g>
                <path class="cls-55"
                      d="m417.82,1286.93s-32.45,15.78-38.41,33.91c-4.79,14.55-40.66,16.42-44.21,45.03-1.83,14.77-12.76,26.6-27.47,28.85-36.64,5.62-93.11,24.64-102.15,88.26-6.9,48.56,17.86,66.97,43.84,73.35,19.08,4.68,31.76,23.24,27.9,42.5-3.7,18.48,1.82,39.84,33.83,56.73,71.73,37.85,143.37-89.67,143.37-89.67l14.68-222.66-51.38-56.3Z"/>
                <path class="cls-77"
                      d="m122.97,2683.1l-4.64,38.16c-.88,7.24-6.58,12.96-13.83,13.79-12.23,1.4-31.86,2.83-51.07.8-8.43-.89-13.9-9.43-11.34-17.51,4.68-14.73,13.25-36.84,25.6-49.86h42.33c7.83,0,13.89,6.85,12.95,14.62Z"/>
                <path class="cls-51"
                      d="m454.52,2236.08l7.15,42.03s-23.93,242.36-28.18,339.3c-.67,15.2,3.26,30.22,11.24,43.17l41.6,67.56-105.74-62.39-2.1-12.9,17.31-23.8-22.67-271.5c-1.33-15.95,1.96-31.95,9.48-46.07l21.87-41.09,50.05-34.31Z"/>
                <path class="cls-36"
                      d="m493.3,2737.93h-33.74c-6.32,0-12.27-2.9-16.12-7.91-10.52-13.67-32.31-40.34-42.73-41.03-14.03-.94-12.23,48.94-12.23,48.94h-7.86l-9.96-61.98c-2.51-15.59,5.25-31.04,19.25-38.35h0s3.21,23.72,20.6,34.21c17.39,10.49,70.76,48.06,70.76,48.06,0,0,6.54-.93,13.71.37,10.65,1.92,9.16,17.69-1.66,17.69Z"/>
                <path class="cls-61"
                      d="m309.7,2256.04s-140.17,265.89-162.45,326.6c-22.28,60.71-30.09,111.35-30.39,116.15-.47,7.49-9.79,14.68-35.48,14.68-13.26,0-19.75-5.32-22.93-10.46-2.71-4.39-2.85-9.88-.57-14.51,8.11-16.41,33.84-68.85,43.37-92.63,11.38-28.4,35.85-157.09,49.27-201.83,13.42-44.74,28.59-93.28,87.05-137.99,0,0,40.13-39.3,72.13,0Z"/>
                <path class="cls-31"
                      d="m398.25,1820.36c36.16-153.21-55.44-239.87-55.44-239.87,57.8-55.48,163.1-80.72,163.1-80.72,0,0,100.48,73.46,88.56,130.96-6.99,33.7-70.63,201.87-70.63,201.87,0,0-58.85,27.85-125.59-12.24Z"/>
                <path class="cls-73"
                      d="m318.08,1896.22c14.72-44.33,80.17-75.85,80.17-75.85,66.74,40.09,125.59,12.24,125.59,12.24,0,0,13.2,50.45,4.09,97.33-9.11,46.88-66.26,348.18-66.26,348.18-90.05,18.25-228.55-18.36-228.55-18.36,57.36-101.84,70.24-319.2,84.96-363.53Z"/>
                <path class="cls-30"
                      d="m440.22,1398.52l-29.4,132.05c-2.81,11.63,7.79,9.73,19.55,7.51,19.26-3.63,44.08-11.11,52.37-26.09.84-1.53,1.27-3.25,1.5-4.98l12.63-91.56c1-7.26-2.92-14.32-9.63-17.29l-24.37-10.81c-9.38-4.16-20.24,1.19-22.66,11.17Z"/>
                <path class="cls-84"
                      d="m342.81,1580.49s-205.18,146.79-26.24,301.04c0,0,6.82,7.72,20.24,11.73,6.78,2.02,26.82,17.19,36.99,25.1,3.27,2.54,7.99,1.68,10.18-1.83h0c1.72-2.75,1.92-6.19.54-9.12l-25.4-53.71c-7.05-6.58-17.85-7.05-25.45-1.1h0c-4.85,3.8-11.94,2.21-14.66-3.32-13.83-28.17-39.95-111.03,66.95-204.66,4.02-3.52,5.04-9.34,2.57-14.08-7.51-14.43-24.69-43.08-45.73-50.05Z"/>
                <g>
                    <path class="cls-66"
                          d="m496.52,1278.15s31.3,21.19,44.74,75.14c13.45,53.95-8.41,73.3-30.81,72.12-22.4-1.19-54.88-8.11-83.03-46.82-28.14-38.7,28.08-126.32,69.09-100.44Z"/>
                    <path class="cls-88"
                          d="m455.81,1356.82s-11.47-77.31,52.72-65.48l12.98,13.51s31.42-35.38-3.35-62.12c-34.77-26.74-83.01-19.9-109.7,28.79-26.69,48.69-36.38,82.9-14.01,113.16,22.37,30.25,39.2,4.31,39.2,4.31,0,0-10.26-26.19-1.75-37.42,8.51-11.24,19.5,6.53,19.5,6.53l4.41-1.27Z"/>
                    <path class="cls-87"
                          d="m447.04,1363.44s-5.66-39.77-25.97-28.4c-20.31,11.37,7.32,37.15,18.4,45.93l7.57-17.52Z"/>
                </g>
            </g>
            <g>
                <path class="cls-46"
                      d="m780.93,2748.48c-.01-.8.04-1.61.25-2.42,12.09-47.92,61.5-72.48,61.5-72.48l23.77,1.86c13.67,42.23,22.48,62.85,20.28,74.39-.06.32-.16.63-.25.94-19.61,1.75-59.97,2.9-105.56-2.29Z"/>
                <path class="cls-54"
                      d="m886.49,2750.77c-1.06,3.85-3.9,6.85-7.54,7.62-27.89,5.87-72.23,1.15-90.84-1.29-4.11-.54-7.11-4.33-7.18-8.62,45.59,5.19,85.95,4.05,105.56,2.29Z"/>
                <path class="cls-49"
                      d="m823.11,2636.59l10.41,50.1c.76,3.67,3.58,6.42,7,6.74,4.18.39,10.14.62,16.12-.26,5.37-.79,9.11-6.24,8.16-12.1l-7.23-44.49h-34.45Z"/>
                <path class="cls-22"
                      d="m1088.46,2750.36c-25.39-.71-38.52-3.7-45.31-6.48-.02,2.52,0,5.09.08,7.75.09,2.84,2.19,5.11,4.78,5.1l139.39-.9c4.45-.03,7.05-5.19,5.12-9.27-18.28,1.51-64.82,4.89-104.07,3.79Z"/>
                <path class="cls-37"
                      d="m1192.53,2746.57c-.17-.35-.31-.72-.55-1.05-12.31-17.2-43.66-51.45-105.62-66.31l-29.72-.94s-13.23,23-13.48,65.61c6.79,2.77,19.92,5.76,45.31,6.48,39.24,1.1,85.79-2.28,104.07-3.79Z"/>
                <path class="cls-43"
                      d="m1051.13,2633.23c.33,2.21,4.4,35.89,5.98,48.94.37,3.1,2.62,5.5,5.45,5.84,5.06.6,13.25,1.15,20.42-.31,3.87-.79,6.66-4.51,6.66-8.82v-52.85l-38.51,7.21Z"/>
                <path class="cls-65"
                      d="m842.97,1978.68s-47.56,422.75-21.14,686.98c0,0,31.71,0,47.56-5.28,0,0,49.42-413.34,65.41-531.62.6-4.46,6.97-4.66,7.84-.25,19.73,99.51,97.2,489.74,106.42,526.59,0,0,26.42,10.57,47.56,0,0,0-42.28-565.43-73.98-665.84l-179.67-10.57Z"/>
                <path class="cls-67"
                      d="m747.85,1487.22s200.81-31.71,359.34,10.57l-10.57,163.82s-42.28,227.23-73.98,327.63c0,0-121.54,21.14-179.67-10.57,0,0-47.56-285.36-73.98-327.63,0,0-26.42-110.97-21.14-163.82Z"/>
                <path class="cls-35" d="m887.35,1342.83l-20,135.28s55.89,25.67,95.02-1.1l-8.43-95.47-66.59-38.71Z"/>
                <g>
                    <path class="cls-85"
                          d="m973.48,1254.74c.63,1.14,12.69,69.36,20.11,111.59,3.07,17.45-9.76,33.65-27.44,34.7l-16.19.96c-29.75,1.76-55.95-19.42-60.46-48.88l-11.71-76.49s80.4-49.61,95.7-21.87Z"/>
                    <path class="cls-33"
                          d="m860.32,1276.8c-6.21-7.72-11.62-20.2,1.6-33.33,13.38-13.29,28.57-9.98,38.2-5.52,4.26,1.97,9.52,1.1,12.55-2.49,1.35-1.59,3.35-2.68,6.32-2.34,5.6.63,10.6-3.07,11.26-8.66,1.14-9.59,6.25-20.89,23.21-24.16,31.11-6.01,46.63,25.12,46.07,47-.55,21.88-34.65,26.48-54,22.85-14.21-2.67-26.5,9.82-32.02,16.64-2,2.47-2.75,5.72-2.03,8.82l4.92,21.14c-3.41,6.57-6.75,13.28-11.53,18.89-3.45,4.04-7.22,6.27-11.23,7.21-5.8-10.8-22.02-12.63-29.56-12.87-2.88-.09-5.58-1.36-7.47-3.54-5.69-6.52-14.59-21.08,2.45-35.37,4.24-3.55,4.72-9.95,1.26-14.26Z"/>
                    <path class="cls-53"
                          d="m899.26,1365.46s-.67-38.17-16.12-41.76c-15.45-3.59-32.12,7.58-18.9,30.44,16.44,28.43,35.02,11.32,35.02,11.32Z"/>
                </g>
                <path class="cls-44"
                      d="m747.85,1487.22s-311.78,338.2,55.49,467.67v-26.42s-137.4-116.26-31.71-274.79c0,0-13.21-150.61-23.78-166.46Z"/>
                <path class="cls-59"
                      d="m805.98,1931.12s47.56-31.71,68.7-21.14c21.14,10.57,21.14,26.42,21.14,26.42,0,0-10.57,21.14-26.42,15.85-15.85-5.28-52.84,5.28-68.7,0,0,0-5.28-21.14,5.28-21.14Z"/>
                <path class="cls-60"
                      d="m1107.19,1497.79s324.99,327.63-42.28,457.1v-26.42s137.4-116.26,31.71-274.79c0,0-10.57-129.47,10.57-155.89Z"/>
                <path class="cls-50"
                      d="m1062.27,1931.12s-47.56-31.71-68.7-21.14c-21.14,10.57-21.14,26.42-21.14,26.42,0,0,10.57,21.14,26.42,15.85,15.85-5.28,52.84,5.28,68.7,0,0,0,5.28-21.14-5.28-21.14Z"/>
            </g>
            <g>
                <g>
                    <path class="cls-14"
                          d="m713.15,2156.08s69.59,135.01,69.22,220.52l-16.82,5.77s-45.26-145.01-72.72-176.8c-27.46-31.79,20.32-49.49,20.32-49.49Z"/>
                    <path class="cls-9"
                          d="m771.64,2365.24l10.74,11.36s14.23,18.44,18.07,32.92c3.84,14.48-14.97,24.32-21.82,26.3-6.85,1.97-9.49-4.64-6.24-18.17,0,0-12.19-19.14-6.51-43.65l5.76-8.75Z"/>
                </g>
                <g>
                    <path class="cls-15"
                          d="m558.95,2156.08s-59.97,139.55-53.62,224.82l17.19,4.58s35-147.82,60.17-181.46c25.17-33.64-23.74-47.95-23.74-47.95Z"/>
                    <path class="cls-13"
                          d="m515.24,2368.82l-9.92,12.08s-12.9,19.39-15.72,34.1c-2.82,14.71,16.64,23.21,23.6,24.7,6.97,1.49,9.14-5.29,4.95-18.56,0,0,10.82-19.94,3.44-44l-6.36-8.32Z"/>
                </g>
                <path class="cls-12"
                      d="m674.36,2712.52l-3.86,9.47,1.56,34.1c.22,4.79,4.09,8.81,9.3,9.62,7.11,1.1,17.46,2.21,27.19,1.46,7.62-.59,12.39-7.75,9.41-14.14l-11.48-24.59c-1.72-3.68-4.85-6.5-8.69-7.83l-23.44-8.08Z"/>
                <path class="cls-16"
                      d="m643.42,2449.44s18.93,211.04,31.43,275.61c0,0,9.35,6.82,23.35-1.97l16.99-281.63-71.77,8Z"/>
                <path class="cls-4"
                      d="m613.3,2712.52l3.86,9.47-1.56,34.1c-.22,4.79-4.09,8.81-9.3,9.62-7.11,1.1-17.46,2.21-27.19,1.46-7.62-.59-12.39-7.75-9.41-14.14l11.48-24.59c1.72-3.68,4.85-6.5,8.69-7.83l23.44-8.08Z"/>
                <path class="cls-10"
                      d="m644.25,2449.44s-18.93,211.04-31.43,275.61c0,0-9.35,6.82-23.35-1.97l-16.99-281.63,71.77,8Z"/>
                <path class="cls-3"
                      d="m558.62,2155.19s68.73-25.47,154.53.89c0,0,9.62,64.96,4.67,95.87l-147.85,5.35-11.35-102.12Z"/>
                <path class="cls-18"
                      d="m717.82,2264.08s49.99,156.49,59.96,257.31c.51,5.19-3.27,9.78-8.45,10.31-9.81.99-27.07,3.92-50.39,12.45-37.81,13.83-69.55,10.57-98.34,3.21-22.6-5.78-78.8-9.76-101.93-11.21-5.51-.35-9.54-5.32-8.72-10.78,5.61-37.57,27.21-170.99,63.22-262.3l144.65,1.02Z"/>
                <path class="cls-6"
                      d="m718.3,2248.45l-.48,15.62s-47.49,8.36-147.93,4.98l-.52-17.22s111.28,2.18,148.94-3.38Z"/>
                <path class="cls-11"
                      d="m699.99,1969.35s-22.84-31.53,19.38-51.49c39.67-18.75,57.21,21.45,41.12,41.5-1.14,1.42-.64,3.54,1.02,4.29,2.84,1.29,4.79,4.81-2.14,14.3-.6.82-.69,1.9-.27,2.82,3,6.5,12.18,31.96-30.66,26.45-.77-.1-1.48-.52-1.93-1.15l-26.52-36.72Z"/>
                <path class="cls-8"
                      d="m543.56,1975.28s4.21-33.15-10.97-47.48c-15.18-14.32-47.1-30.54-68.81,1.86-10.35,15.46-9.82,23.97-6.43,28.65,3.09,4.26,2.38,9.72-1.11,13.7-3.96,4.52-5.69,10.78,1.74,18.37,2.19,2.24,3.38,5.11,3.32,8.06-.25,12.29,5.82,43.19,76.99,25.93l5.27-49.1Z"/>
                <path class="cls-17"
                      d="m630.68,1932.57c-11.55-8.15-37.3-19.42-66.02,12.76-2,2.25-4.57,3.91-7.45,4.79-13.94,4.23-55.37,21.56-32.07,73.67,1.07,2.38,1.55,4.99,1.38,7.59-.52,7.88-.48,25.59,9.56,32.1,3,1.94,5.26,4.83,6.44,8.2,4.78,13.66,20.33,43.58,61.25,24.48,2.08-.97,4.36-1.5,6.66-1.51l50.98-.38c2.71-.02,5.37.66,7.76,1.94,5.59,3,17.29,7.08,24.74-5.97,1.52-2.66,3.75-4.84,6.44-6.29,9.64-5.21,30.98-20.35,23.47-49.52-.84-3.27-.67-6.7.53-9.85,3.64-9.56,9.1-31.33-9.4-45.16-2.78-2.08-4.85-4.94-5.78-8.29-4.04-14.62-19.17-53.09-63.71-36.7-4.95,1.82-10.48,1.19-14.79-1.85Z"/>
                <path class="cls-7"
                      d="m611.5,2076.92l-6.53,64.72c-.52,5.15,2.86,9.87,7.9,11.03,11.54,2.65,32.39,5.78,49.9-.64,4.42-1.62,7.23-5.98,6.78-10.66l-6.41-66.48-51.64,2.04Z"/>
                <path class="cls-5"
                      d="m697.94,2025.18c2,45.52-11.79,94.41-64.92,94.76-36.76.24-66.06-43.39-68.06-88.91-2-45.52,24.1-74.32,60.82-75.93,36.72-1.61,70.16,24.57,72.16,70.09Z"/>
                <path class="cls-19"
                      d="m689.8,2045.23s3.35-26.52,16.12-17.48c12.77,9.04-7.63,39.8-15.95,41.16-8.32,1.36-.17-23.68-.17-23.68Z"/>
                <path class="cls-2"
                      d="m572.47,2042.03s.34-20.73-15.72-14.53c-16.05,6.2,3.94,44.44,22.06,40.72l-6.34-26.2Z"/>
                <path class="cls-1"
                      d="m554.97,2021.77s31.08,52.28,71.32-33.95c0,0,15.17,31.54,29.82,9.6,0,0,38.63,23.13,46.96,6.58,8.33-16.55-42.51-77.02-98.75-53.32-56.25,23.7-49.34,71.08-49.34,71.08Z"/>
            </g>
        </g>
    </g>
</svg>